# xmcd
#
# Track frame offsets:
#	150
#	14874
#	33973
#	53036
#	67896
#	87836
#	103775
#	124024
#	140117
#	154878
#
# Disc length: 2360 seconds
#
# Revision: 1
# Processed by: cddbd v1.5.2PL0 Copyright (c) Steve Scherf et al.
# Submitted via: audiograbber 1.83.01
#
DISCID=8709360a
DTITLE=Main Ingredient - Afrodisiac
DYEAR=1974
DGENRE=R&B
TTITLE0=Super Woman
TTITLE1=Where Were You When I Needed You
TTITLE2=I Am Yours
TTITLE3=Work To Do
TTITLE4=Girl Blue
TTITLE5=You Can Call Me The Rover
TTITLE6=Something 'Bout Your Love
TTITLE7=Love Of My Life
TTITLE8=Something Lovely
TTITLE9=Good Bye My Love
EXTD=
EXTT0=
EXTT1=
EXTT2=
EXTT3=
EXTT4=
EXTT5=
EXTT6=
EXTT7=
EXTT8=
EXTT9=
PLAYORDER=
